<?xml version="1.0" encoding="UTF-8" standalone="no"?>
<svg
   xmlns:dc="http://purl.org/dc/elements/1.1/"
   xmlns:cc="http://creativecommons.org/ns#"
   xmlns:rdf="http://www.w3.org/1999/02/22-rdf-syntax-ns#"
   xmlns:svg="http://www.w3.org/2000/svg"
   xmlns="http://www.w3.org/2000/svg"
   xmlns:sodipodi="http://sodipodi.sourceforge.net/DTD/sodipodi-0.dtd"
   xmlns:inkscape="http://www.inkscape.org/namespaces/inkscape"
   inkscape:export-ydpi="96"
   inkscape:export-xdpi="96"
   inkscape:export-filename="/home/berocs/git/pywb-scrapbook/logo.png"
   sodipodi:docname="logo.svg"
   inkscape:version="1.0 (4035a4fb49, 2020-05-01)"
   id="svg8"
   version="1.1"
   viewBox="0 0 210 297"
   height="297mm"
   width="210mm">
  <defs
     id="defs2" />
  <sodipodi:namedview
     inkscape:window-maximized="1"
     inkscape:window-y="1098"
     inkscape:window-x="1920"
     inkscape:window-height="1043"
     inkscape:window-width="1920"
     showgrid="false"
     inkscape:document-rotation="0"
     inkscape:current-layer="g839"
     inkscape:document-units="mm"
     inkscape:cy="193.56283"
     inkscape:cx="554.51344"
     inkscape:zoom="0.7"
     inkscape:pageshadow="2"
     inkscape:pageopacity="0.0"
     borderopacity="1.0"
     bordercolor="#666666"
     pagecolor="#ffffff"
     id="base" />
  <metadata
     id="metadata5">
    <rdf:RDF>
      <cc:Work
         rdf:about="">
        <dc:format>image/svg+xml</dc:format>
        <dc:type
           rdf:resource="http://purl.org/dc/dcmitype/StillImage" />
        <dc:title />
      </cc:Work>
    </rdf:RDF>
  </metadata>
  <g
     id="layer1"
     inkscape:groupmode="layer"
     inkscape:label="Layer 1">
    <g
       id="g839">
      <rect
         style="fill:#ffffff;stroke:#000000;stroke-width:1;stroke-linejoin:round;stroke-miterlimit:4;stroke-dasharray:none;fill-opacity:1"
         id="rect10"
         width="102"
         height="100"
         x="33.474819"
         y="28.120548" />
      <rect
         style="fill:#000000;fill-opacity:1;stroke:none;stroke-width:1;stroke-linejoin:round;stroke-miterlimit:4;stroke-dasharray:none"
         id="rect835"
         width="91"
         height="73"
         x="38.974819"
         y="34.339565" />
    </g>
  </g>
  <g
     style="display:inline"
     inkscape:label="Layer 2"
     id="layer2"
     inkscape:groupmode="layer">
    <path
       sodipodi:nodetypes="ccccccccccccccc"
       d="m 104.76375,131.83148 36.2187,-31.875567 -0.0407,3.842497 3.58335,-0.49743 -0.13515,4.36471 3.59744,-0.32477 -0.31134,3.70776 3.00594,-0.0716 -36.2187,31.87557 -2.06071,-0.40807 0.75906,-4.10153 -4.22161,0.0699 0.60759,-4.17754 -4.17519,0.10429 z"
       style="fill:#fff8e2;fill-opacity:0.8;stroke:#000000;stroke-width:1;stroke-linejoin:round;stroke-miterlimit:4;stroke-dasharray:none;stroke-opacity:1"
       id="rect1507" />
    <path
       id="rect1507-6"
       style="fill:#fff8e2;fill-opacity:0.8;stroke:#000000;stroke-width:1;stroke-linejoin:round;stroke-miterlimit:4;stroke-dasharray:none;stroke-opacity:1"
       d="m 65.153923,30.678429 -42.742733,22.380922 0.950421,-3.723328 -3.599129,-0.366228 1.166,-4.208252 -3.571891,-0.537293 1.181426,-3.528263 -2.93723,-0.64303 42.742735,-22.380921 1.905228,0.884939 -1.709733,3.804674 4.11785,0.932863 -1.580607,3.914417 4.080904,0.888467 z"
       sodipodi:nodetypes="ccccccccccccccc" />
  </g>
  <g
     style="display:inline"
     inkscape:label="Layer 3"
     id="layer3"
     inkscape:groupmode="layer">
    <g
       style="stroke-width:0.531516"
       transform="matrix(1.6293494,-0.94070529,0.94070529,1.6293494,17.478884,89.81618)"
       id="g1505">
      <path
         id="rect1477"
         style="fill:#55be6e;fill-opacity:0.996078;stroke:none;stroke-width:0.531515;stroke-linejoin:round;stroke-miterlimit:4;stroke-dasharray:none"
         d="m 35.862835,5.5075156 c 0.89796,0.6197203 1.03371,1.517278 1.03371,2.5505006 v 0.8092529 c 0,2.3503589 -2.614331,3.7134689 -6.518981,3.7134689 h -3.844726 c -3.904649,0 -6.518984,-1.36311 -6.518984,-3.7134689 V 8.0580162 c 0,-2.2055971 2.460155,-3.2510802 5.970443,-3.4073118 V 6.5624297 L 31.114162,3.5198511 25.984297,0.64845158 V 1.791732 h -1.98257 c -3.904649,0 -7.048148,2.999528 -7.048148,6.7251709 0,3.7256431 3.143499,6.7246541 7.048148,6.7246541 h 9.047509 c 3.904652,0 7.048154,-2.999011 7.048151,-6.7246541 -10e-7,-1.2888208 -0.303859,-2.1768441 -0.957596,-3.197764 z"
         sodipodi:nodetypes="csssssscccccssssscc" />
      <path
         sodipodi:nodetypes="csssssscccccssssscc"
         d="m 34.600254,11.770879 c -0.89796,-0.619721 -1.03371,-1.517279 -1.03371,-2.5505012 v -0.809253 c 0,-2.3503593 2.614331,-3.7134679 6.518981,-3.7134679 h 3.844726 c 3.904649,0 6.518984,1.3631086 6.518984,3.7134679 v 0.809253 c 0,2.2055972 -2.460155,3.2510802 -5.970443,3.4073122 v -1.911726 l -5.129865,3.042579 5.129865,2.8714 v -1.14328 h 1.98257 c 3.904649,0 7.048148,-2.999529 7.048148,-6.7251719 0,-3.7256432 -3.143499,-6.7246532 -7.048148,-6.7246532 h -9.047509 c -3.904652,0 -7.048154,2.99901 -7.048151,6.7246532 1e-6,1.2888209 0.303859,2.1768439 0.957596,3.1977639 z"
         style="fill:#26a0ff;fill-opacity:0.988235;stroke:none;stroke-width:0.531515;stroke-linejoin:round;stroke-miterlimit:4;stroke-dasharray:none"
         id="rect1477-3" />
    </g>
  </g>
</svg>
